<svg width="16" height="16" viewBox="0 0 16 16" fill="none" xmlns="http://www.w3.org/2000/svg">
<path d="M10.141 13.1108L14.8435 8.4233C15.2112 8.05768 15.2112 7.4633 14.8435 7.09768L10.141 2.41018C9.77327 2.04361 9.17794 2.04361 8.81115 2.41018C8.44436 2.77674 8.44342 3.37018 8.81115 3.7358L11.9082 6.82299H2.89264C2.37349 6.82299 1.95215 7.24299 1.95215 7.76049C1.95215 8.27799 2.37349 8.69799 2.89264 8.69799H11.9082L8.81115 11.7852C8.62775 11.968 8.53559 12.208 8.53559 12.448C8.53559 12.688 8.62775 12.928 8.81115 13.1108C9.17888 13.4774 9.77421 13.4774 10.141 13.1108Z" fill="#FF4510"/>
</svg>
