<svg width="31" height="30" viewBox="0 0 31 30" fill="#fff" xmlns="http://www.w3.org/2000/svg">
<path d="M5.33984 6H7.43984L10.7398 15.6L8.94784 17.555C8.37084 18.185 8.81784 19.2 9.67084 19.2H22.7408" stroke="black" stroke-width="1.6"/>
<path d="M7.89258 7.31799H23.3356C24.2236 7.31799 24.7926 8.26199 24.3796 9.04799L20.8546 15.75H10.8896M12.9296 23.16C12.9296 24.302 12.0046 25.226 10.8636 25.226C9.72358 25.226 8.79858 24.302 8.79858 23.161C8.79858 22.021 9.72258 21.096 10.8636 21.096C12.0036 21.096 12.9286 22.02 12.9286 23.161L12.9296 23.16ZM22.7396 23.16C22.7396 24.302 21.8146 25.226 20.6746 25.226C19.5346 25.226 18.6096 24.302 18.6096 23.161C18.6096 22.021 19.5336 21.096 20.6746 21.096C21.8146 21.096 22.7396 22.019 22.7396 23.16Z" stroke="black" stroke-width="1.6"/>
</svg>
