<svg width="20" height="21" viewBox="0 0 20 21" fill="none" xmlns="http://www.w3.org/2000/svg">
<path d="M4.533 18.7525H12.1128C13.5698 18.7525 14.7646 17.6593 14.9514 16.2525H15.4461C17.0323 16.2525 18.3229 14.9618 18.3229 13.3757V4.96257C18.3229 3.37648 17.0323 2.08582 15.4462 2.08582H7.86633C6.28025 2.08582 4.98958 3.37648 4.98958 4.96257V5.41915H4.533C2.94692 5.41915 1.65625 6.70982 1.65625 8.2959V15.8756C1.65625 17.4618 2.94692 18.7525 4.533 18.7525ZM6.65625 4.96257C6.65625 4.29532 7.19908 3.75248 7.86633 3.75248H15.4461C16.1134 3.75248 16.6563 4.29532 16.6563 4.96257V13.3756C16.6563 14.043 16.1134 14.5858 15.4462 14.5858H14.9896V8.2959C14.9896 6.70982 13.6989 5.41915 12.1128 5.41915H6.65625V4.96257ZM3.32292 8.2959C3.32292 7.62865 3.86575 7.08582 4.533 7.08582H12.1128C12.7801 7.08582 13.3229 7.62865 13.3229 8.2959V15.8756C13.3229 16.543 12.7801 17.0858 12.1128 17.0858H4.533C3.86575 17.0858 3.32292 16.543 3.32292 15.8757V8.2959Z" fill="#FF4510"/>
</svg>
