<svg width="20" height="21" viewBox="0 0 20 21" fill="none" xmlns="http://www.w3.org/2000/svg">
<path d="M18.32 10.4999C18.32 9.35382 18.1053 8.27965 17.6758 7.27743C17.2464 6.27521 16.6475 5.38965 15.8792 4.62077C15.1108 3.85188 14.2253 3.25299 13.2225 2.8241C12.2197 2.39521 11.1456 2.18049 10 2.17993C8.85444 2.17938 7.78028 2.3941 6.7775 2.8241C5.77472 3.2541 4.88917 3.85299 4.12083 4.62077C3.3525 5.38854 2.75361 6.2741 2.32417 7.27743C1.89472 8.28077 1.68 9.35493 1.68 10.4999C1.68 11.5155 1.84278 12.4724 2.16833 13.3708C2.49389 14.2691 2.96278 15.083 3.575 15.8124C4.18722 16.5419 4.89694 17.1538 5.70417 17.6483C6.51139 18.1427 7.38389 18.4813 8.32167 18.6641V12.9999H6.68083V10.4999H8.32167V8.42993C8.32167 7.88327 8.45833 7.38854 8.73167 6.94577C9.005 6.50299 9.35667 6.15132 9.78667 5.89077C10.2167 5.63021 10.705 5.49993 11.2517 5.49993H13.3217V7.99993H11.6808C11.4464 7.99993 11.2444 8.08465 11.075 8.2541C10.9056 8.42354 10.8208 8.61243 10.8208 8.82077V10.5008H13.3208V13.0008H10.8208V18.7824C11.8886 18.678 12.8783 18.3916 13.79 17.9233C14.7017 17.4549 15.4958 16.8494 16.1725 16.1066C16.8492 15.3638 17.3764 14.5174 17.7542 13.5674C18.1319 12.6174 18.3208 11.5952 18.3208 10.5008L18.32 10.4999Z" fill="white"/>
</svg>
