<svg width="20" height="21" viewBox="0 0 20 21" fill="none" xmlns="http://www.w3.org/2000/svg">
<path d="M10 2.30125C12.6712 2.30125 12.9887 2.3125 14.0387 2.36C15.015 2.4025 15.5425 2.5675 15.8937 2.70375C16.3587 2.88375 16.695 3.1025 17.0425 3.45C17.3937 3.80125 17.6087 4.13375 17.7925 4.59875C17.9287 4.95 18.0937 5.48125 18.1362 6.45375C18.1825 7.50875 18.195 7.825 18.195 10.4925C18.195 13.16 18.1837 13.4813 18.1362 14.5312C18.0937 15.5075 17.9287 16.035 17.7925 16.3862C17.6125 16.8512 17.3937 17.1875 17.0462 17.535C16.695 17.8862 16.3625 18.1012 15.8975 18.285C15.5462 18.4212 15.015 18.5863 14.0425 18.6287C12.9875 18.675 12.6712 18.6875 10.0037 18.6875C7.33625 18.6875 7.015 18.6763 5.965 18.6287C4.98875 18.5863 4.46125 18.4212 4.11 18.285C3.645 18.105 3.30875 17.8862 2.96125 17.5387C2.61 17.1875 2.395 16.855 2.21125 16.39C2.075 16.0387 1.91 15.5075 1.8675 14.535C1.82 13.48 1.80875 13.1638 1.80875 10.4963C1.80875 7.82875 1.82 7.5075 1.8675 6.4575C1.91 5.48125 2.075 4.95375 2.21125 4.6025C2.39125 4.1375 2.61 3.80125 2.9575 3.45375C3.30875 3.1025 3.64125 2.8875 4.10625 2.70375C4.4575 2.5675 4.98875 2.4025 5.96125 2.36C7.0125 2.3125 7.32875 2.30125 10 2.30125ZM10 0.5C7.285 0.5 6.945 0.51125 5.87875 0.55875C4.81625 0.60625 4.08625 0.7775 3.4525 1.02375C2.7925 1.28125 2.23375 1.62125 1.67875 2.18C1.12 2.735 0.779999 3.29375 0.522499 3.95C0.276249 4.58625 0.104999 5.31375 0.0574988 6.37625C0.0112488 7.44625 -0.00125122 7.78625 -0.00125122 10.5013C-0.00125122 13.2163 0.00999878 13.5563 0.0574988 14.6225C0.104999 15.685 0.276249 16.415 0.522499 17.0487C0.779999 17.7087 1.12 18.2675 1.67875 18.8225C2.23375 19.3775 2.7925 19.7213 3.44875 19.975C4.085 20.2213 4.8125 20.3925 5.875 20.44C6.94125 20.4862 7.28125 20.4987 9.99625 20.4987C12.7112 20.4987 13.0512 20.4875 14.1175 20.44C15.18 20.3937 15.91 20.2213 16.5437 19.975C17.2 19.7213 17.7587 19.3775 18.3137 18.8225C18.8687 18.2675 19.2125 17.7087 19.4662 17.0525C19.7125 16.4162 19.8837 15.6887 19.9312 14.6262C19.9775 13.56 19.99 13.22 19.99 10.505C19.99 7.79 19.9787 7.45 19.9312 6.38375C19.885 5.32125 19.7125 4.59125 19.4662 3.9575C19.22 3.29375 18.88 2.735 18.3212 2.18C17.7662 1.625 17.2075 1.28125 16.5512 1.0275C15.915 0.78125 15.1875 0.61 14.125 0.5625C13.055 0.51125 12.715 0.5 10 0.5Z" fill="white"/>
<path d="M10 5.36377C7.16375 5.36377 4.86375 7.66502 4.86375 10.5C4.86375 13.335 7.165 15.6363 10 15.6363C12.835 15.6363 15.1362 13.335 15.1362 10.5C15.1362 7.66377 12.835 5.36377 10 5.36377ZM10 13.8325C8.16 13.8325 6.6675 12.34 6.6675 10.5C6.6675 8.66002 8.16 7.16752 10 7.16752C11.84 7.16752 13.3325 8.66002 13.3325 10.5C13.3325 12.34 11.84 13.8325 10 13.8325Z" fill="white"/>
<path d="M16.5388 5.15993C16.5388 5.82243 16.0013 6.35868 15.34 6.35868C14.6788 6.35868 14.1413 5.82118 14.1413 5.15993C14.1413 4.49743 14.6788 3.96118 15.34 3.96118C16.0013 3.96118 16.5388 4.49868 16.5388 5.15993Z" fill="white"/>
</svg>
