<svg width="20" height="21" viewBox="0 0 20 21" fill="none" xmlns="http://www.w3.org/2000/svg">
<path d="M7.5 8H10.9588V9.7725H11.0088C11.49 8.90875 12.6675 8 14.4237 8C18.075 8 18.75 10.2725 18.75 13.2287V19.25H15.1437V13.9125C15.1437 12.64 15.1175 11.0013 13.2687 11.0013C11.3912 11.0013 11.1038 12.3875 11.1038 13.82V19.25H7.5V8Z" fill="white"/>
<path d="M1.25 8H5V19.25H1.25V8Z" fill="white"/>
<path d="M5 4.875C5 5.91 4.16 6.75 3.125 6.75C2.09 6.75 1.25 5.91 1.25 4.875C1.25 3.84 2.09 3 3.125 3C4.16 3 5 3.84 5 4.875Z" fill="white"/>
</svg>
