<?xml version="1.0" encoding="UTF-8"?>
<svg xmlns="http://www.w3.org/2000/svg" xmlns:xlink="http://www.w3.org/1999/xlink" width="30px" height="41px" viewBox="0 0 30 40" version="1.1">
<g id="surface1">
<path style=" stroke:none;fill-rule:nonzero;fill:rgb(77.64706%,25.882354%,25.882354%);fill-opacity:0.988235;" d="M 14.992188 39.574219 C 14.902344 39.359375 13.027344 37.5625 11.683594 35.929688 C 3.71875 25.582031 -5.15625 15.964844 5.207031 4.277344 C 9.796875 -0.0664062 15.457031 -0.3125 21.273438 1.710938 C 37.65625 10.992188 25.796875 26.132812 18.007812 36.085938 Z M 19.921875 23.710938 C 30.847656 16.058594 22.398438 1.324219 10.394531 6.222656 C 6.890625 8.054688 5.148438 11.238281 5.089844 14.992188 C 4.921875 18.648438 6.902344 21.703125 10.042969 23.574219 C 12.296875 24.777344 13.285156 24.992188 15.835938 24.84375 C 17.488281 24.746094 18.441406 24.484375 19.921875 23.710938 Z M 19.921875 23.710938 "/>
<path style=" stroke:none;fill-rule:nonzero;fill:rgb(77.64706%,25.882354%,25.882354%);fill-opacity:0.988235;" d="M 11.859375 27.363281 C 4.140625 25.789062 -0.804688 18.554688 0.792969 11.164062 C 2.390625 3.773438 9.929688 -1 17.671875 0.480469 C 25.410156 1.960938 30.449219 9.136719 28.953125 16.546875 C 27.453125 23.953125 19.980469 28.816406 12.21875 27.429688 "/>
<path style=" stroke:none;fill-rule:nonzero;fill:rgb(71.764708%,17.254902%,17.254902%);fill-opacity:1;" d="M 12.800781 25.433594 C 7.0625 24.199219 3.390625 18.519531 4.578125 12.722656 C 5.765625 6.925781 11.363281 3.183594 17.117188 4.34375 C 22.867188 5.503906 26.613281 11.132812 25.5 16.945312 C 24.386719 22.757812 18.832031 26.570312 13.066406 25.484375 "/>
<path style=" stroke:none;fill-rule:nonzero;fill:rgb(100%,100%,100%);fill-opacity:1;" d="M 13.410156 21.695312 C 9.617188 20.886719 7.1875 17.164062 7.972656 13.363281 C 8.757812 9.5625 12.460938 7.109375 16.265625 7.867188 C 20.066406 8.628906 22.542969 12.320312 21.808594 16.132812 C 21.070312 19.941406 17.398438 22.441406 13.585938 21.730469 "/>
</g>
</svg>
