<svg width="19" height="25" viewBox="0 0 19 25" fill="none" xmlns="http://www.w3.org/2000/svg">
<path d="M5.2524 1.5975C5.29207 1.57516 5.28173 1.56117 5.42107 1.62683C5.5604 1.69283 5.78173 1.8645 5.99907 2.09983C6.43273 2.5745 6.86807 3.2935 7.09473 3.76817C7.10173 3.78383 7.1104 3.7975 7.11873 3.81116C7.75807 4.91317 8.0334 5.75483 8.04207 6.28483C8.05107 6.8135 7.91007 7.04183 7.46073 7.29983L6.29873 7.9685C5.54273 8.4035 5.18607 9.18317 5.0974 9.9105C5.00807 10.6382 5.14107 11.3452 5.46473 11.9042L8.32807 16.8395C8.65373 17.3972 9.20373 17.8652 9.8814 18.1525C10.5591 18.4402 11.4161 18.5215 12.1717 18.0868L13.3351 17.4215C13.7844 17.1635 14.0524 17.1562 14.5087 17.4282C14.9664 17.7002 15.5601 18.3568 16.1994 19.4582C16.2084 19.4742 16.2171 19.4878 16.2274 19.5035C16.5267 19.9348 16.9344 20.6695 17.1311 21.2812C17.2287 21.5858 17.2671 21.8612 17.2547 22.0155C17.2411 22.1682 17.2377 22.1508 17.1974 22.1748L16.3157 22.6808C14.0991 23.6442 12.0684 23.4275 10.2521 22.4835C8.4304 21.5392 6.84707 19.8292 5.74507 17.8235C5.74107 17.8198 5.73973 17.8145 5.73607 17.8115L3.32273 13.6505C3.32073 13.6452 3.3174 13.6418 3.31573 13.6362C2.12107 11.6842 1.42107 9.46483 1.50773 7.4245C1.59507 5.38717 2.42573 3.5285 4.3744 2.09916L5.2524 1.5975ZM5.9594 0.490832C5.57773 0.312498 5.05173 0.260165 4.6214 0.508165L3.6884 1.04517C3.66707 1.05717 3.64807 1.0695 3.62907 1.0815C1.3824 2.7255 0.347733 5.01383 0.247066 7.37317C0.1454 9.73116 0.9334 12.1648 2.23407 14.2922L4.63573 18.4288C4.63707 18.4288 4.63907 18.4288 4.63907 18.4305L4.6424 18.4412C5.84407 20.6188 7.56673 22.5082 9.66707 23.5995C11.7707 24.6912 14.2771 24.9442 16.8317 23.8302C16.8544 23.8215 16.8754 23.8112 16.8961 23.8005L17.8297 23.2638C18.2601 23.0158 18.4774 22.5398 18.5127 22.1222C18.5491 21.7028 18.4641 21.2995 18.3351 20.8988C18.0824 20.1072 17.6451 19.3422 17.2811 18.8132C16.5917 17.6318 15.9301 16.8092 15.1621 16.3518C14.3887 15.8912 13.4604 15.8978 12.7031 16.3328L11.5397 16.9998C11.1967 17.1972 10.7974 17.1762 10.3777 16.9982C9.9564 16.8195 9.5684 16.4612 9.42207 16.2115L6.55873 11.2762C6.41407 11.0268 6.29773 10.5122 6.35173 10.0618C6.40707 9.6095 6.58807 9.2565 6.93107 9.05883L8.09107 8.39183C8.84873 7.95717 9.32073 7.16217 9.3064 6.2645C9.29073 5.37283 8.90607 4.38683 8.21773 3.19817C7.93907 2.6235 7.49373 1.86483 6.9344 1.25483C6.65073 0.944165 6.34073 0.669165 5.9594 0.490832Z" fill="black"/>
</svg>
