<svg width="21" height="20" viewBox="0 0 21 20" fill="#fff" xmlns="http://www.w3.org/2000/svg">
<path d="M18.8677 14.21L16.3507 11.698C15.4507 10.801 13.9227 11.16 13.5637 12.326C13.2937 13.134 12.3947 13.582 11.5857 13.403C9.78772 12.954 7.36072 10.622 6.91072 8.73802C6.64072 7.93002 7.18072 7.03302 7.98972 6.76402C9.15872 6.40502 9.51772 4.88002 8.61972 3.98302L6.10072 1.47002C5.38072 0.842023 4.30272 0.842023 3.67372 1.47002L1.96672 3.17602C0.257716 4.97002 2.14672 9.72502 6.37172 13.941C10.5967 18.158 15.3617 20.131 17.1597 18.337L18.8677 16.632C19.4977 15.915 19.4977 14.838 18.8677 14.21Z" stroke="black" stroke-width="1.6"/>
</svg>
