<svg width="27" height="15" viewBox="0 0 27 15" fill="none" xmlns="http://www.w3.org/2000/svg">
<path d="M5.425 1.27963H24.8363C24.9203 1.27963 25.0077 1.2973 25.0857 1.32663C25.0787 1.32996 25.072 1.33496 25.0647 1.33896L13.391 8.62763L5.561 1.41463L5.425 1.27963ZM0.639 0.0619646C0.292667 0.0489646 0.00499996 0.324964 0.00499996 0.669964C0.00499996 1.01563 0.292667 1.29096 0.639 1.2793H3.69167L4.704 2.28596L4.71967 2.30163L12.9013 9.8393C13.105 10.0263 13.4097 10.0553 13.6447 9.9083L25.1863 2.69996L23.4293 13.1146C23.3753 13.435 23.2257 13.6223 22.891 13.6223H3.746C3.58067 13.6223 3.39633 13.5493 3.30067 13.4673C3.20433 13.3846 3.203 13.3546 3.20833 13.3156L3.57433 11.1393C3.637 10.769 3.349 10.4316 2.97133 10.4296H0.634C0.287666 10.4173 0 10.694 0 11.0396C0 11.3833 0.287666 11.6586 0.634 11.6476H2.24667L1.99933 13.1143C1.91267 13.6293 2.16667 14.1073 2.50633 14.3943C2.84567 14.6833 3.281 14.8396 3.746 14.8396H22.8913C23.8237 14.8396 24.506 14.1073 24.64 13.3156L26.582 1.7863C26.6693 1.27196 26.418 0.793964 26.0787 0.506964C25.7387 0.217298 25.3033 0.0616314 24.8363 0.0616314L0.639 0.0619646Z" fill="black"/>
<path d="M0.628953 4.14341C0.285953 4.13441 0.00195312 4.40841 0.00195312 4.75141C0.00195312 5.09374 0.285953 5.36808 0.628953 5.36074H3.30729L2.77595 8.51174C2.70629 8.84974 2.93295 9.17841 3.27595 9.23574C3.61695 9.29308 3.93795 9.05541 3.98295 8.71474L4.63462 4.85141C4.69729 4.48108 4.40995 4.14108 4.02995 4.14308L0.628953 4.14341Z" fill="black"/>
</svg>
