<svg width="24" height="25" viewBox="0 0 24 25" fill="none" xmlns="http://www.w3.org/2000/svg">
<g clip-path="url(#clip0_174_852)">
<path d="M12 0.456177C5.36761 0.456177 0 5.82318 0 12.4562C0 19.0885 5.367 24.4562 12 24.4562C18.6324 24.4562 24 19.0892 24 12.4562C24 5.82388 18.633 0.456177 12 0.456177ZM12 22.7818C6.30647 22.7818 1.67442 18.1498 1.67442 12.4562C1.67442 6.7626 6.30647 2.1306 12 2.1306C17.6935 2.1306 22.3256 6.7626 22.3256 12.4562C22.3256 18.1498 17.6935 22.7818 12 22.7818Z" fill="#FF4510"/>
<path d="M12.0002 10.4591C11.2894 10.4591 10.7839 10.7593 10.7839 11.2016V17.2197C10.7839 17.5988 11.2894 17.9778 12.0002 17.9778C12.6794 17.9778 13.2322 17.5988 13.2322 17.2197V11.2015C13.2322 10.7592 12.6794 10.4591 12.0002 10.4591Z" fill="#FF4510"/>
<path d="M12.0003 6.74719C11.2737 6.74719 10.7051 7.26844 10.7051 7.86868C10.7051 8.46896 11.2737 9.00601 12.0003 9.00601C12.7111 9.00601 13.2798 8.46896 13.2798 7.86868C13.2798 7.26844 12.711 6.74719 12.0003 6.74719Z" fill="#FF4510"/>
</g>
<defs>
<clipPath id="clip0_174_852">
<rect width="24" height="24" fill="white" transform="translate(0 0.456177)"/>
</clipPath>
</defs>
</svg>
