<svg width="18" height="18" viewBox="0 0 18 18" fill="none" xmlns="http://www.w3.org/2000/svg">
<path d="M7.56223 0.650024C11.4772 0.650024 14.6342 3.95002 14.6342 8.00402C14.6342 9.59102 14.1502 11.062 13.3272 12.266L17.4632 16.199C17.8032 16.524 17.8152 17.062 17.4902 17.401C17.1662 17.741 16.6282 17.752 16.2892 17.428L12.2092 13.548C10.9682 14.675 9.34323 15.358 7.56223 15.358C3.64823 15.358 0.490234 12.058 0.490234 8.00402C0.490234 3.95102 3.64823 0.650024 7.56223 0.650024ZM7.56223 2.35002C4.60423 2.35002 2.19023 4.87302 2.19023 8.00402C2.19023 11.134 4.60423 13.658 7.56223 13.658C10.5212 13.658 12.9342 11.135 12.9342 8.00402C12.9342 4.87402 10.5212 2.35002 7.56223 2.35002Z" fill="black"/>
</svg>
