<svg width="16" height="16" viewBox="0 0 16 16" fill="none" xmlns="http://www.w3.org/2000/svg">
<path d="M9.55031 13.3503L14.2378 8.6628C14.6044 8.29718 14.6044 7.7028 14.2378 7.33718L9.55031 2.64968C9.18375 2.28312 8.59031 2.28312 8.22468 2.64968C7.85906 3.01624 7.85812 3.60968 8.22468 3.9753L11.3119 7.06249H2.325C1.8075 7.06249 1.3875 7.48249 1.3875 7.99999C1.3875 8.51749 1.8075 8.93749 2.325 8.93749H11.3119L8.22468 12.0247C8.04187 12.2075 7.95 12.4475 7.95 12.6875C7.95 12.9275 8.04187 13.1675 8.22468 13.3503C8.59125 13.7169 9.18468 13.7169 9.55031 13.3503Z" fill="white"/>
</svg>
