<svg width="20" height="21" viewBox="0 0 20 21" fill="none" xmlns="http://www.w3.org/2000/svg">
<path d="M19.8013 6.50009C19.8013 6.50009 19.6063 5.12134 19.005 4.51634C18.2438 3.72009 17.3913 3.71509 17.0013 3.66884C14.205 3.46509 10.005 3.46509 10.005 3.46509H9.99751C9.99751 3.46509 5.79876 3.46509 3.00126 3.66884C2.61001 3.71634 1.75876 3.72009 0.997506 4.51634C0.396256 5.12134 0.205006 6.50009 0.205006 6.50009C0.205006 6.50009 0.0062561 8.11759 0.0062561 9.73884V11.2551C0.0062561 12.8726 0.205006 14.4938 0.205006 14.4938C0.205006 14.4938 0.400006 15.8726 0.997506 16.4788C1.75876 17.2751 2.75876 17.2488 3.20501 17.3338C4.80626 17.4863 10.0063 17.5326 10.0063 17.5326C10.0063 17.5326 14.21 17.5251 17.0063 17.3251C17.3975 17.2788 18.2488 17.2738 19.01 16.4776C19.6113 15.8726 19.8063 14.4926 19.8063 14.4926C19.8063 14.4926 20.005 12.8751 20.005 11.2538V9.73759C20.0013 8.12009 19.8025 6.49884 19.8025 6.49884L19.8013 6.50009ZM7.93376 13.0938V7.47259L13.3363 10.2926L7.93376 13.0938Z" fill="white"/>
</svg>
